<svg width="281" height="281" viewBox="0 0 281 281" fill="none" xmlns="http://www.w3.org/2000/svg">
<path d="M236 234.78C236 241.091 233.515 247.147 229.082 251.639L220.322 260.514C211.434 269.519 196.822 269.509 187.817 260.62C178.929 251.846 164.506 251.835 155.732 260.725L155.404 261.057C146.812 269.762 132.686 269.752 123.981 261.159C115.389 252.678 101.447 252.668 92.9668 261.261C84.4863 269.854 70.6448 269.944 62.0527 261.463L52.1396 251.677C47.5715 247.167 45 241.016 45 234.597V233.615L236 189.467V234.78ZM212 15C225.255 15 236 25.7452 236 39V139.537L45 183.686V39C45 25.7452 55.7452 15 69 15H212Z" fill="#8A38F5"/>
<rect x="81.0945" y="105.186" width="118.811" height="24.063" rx="12.0315" fill="white"/>
<rect x="81.0942" y="60.0674" width="118.811" height="24.063" rx="12.0315" fill="white"/>
</svg>
